<svg xmlns="http://www.w3.org/2000/svg" width="48" height="47.991" viewBox="0 0 48 47.991"><g transform="translate(-5.1 -5.3)"><path d="M51.539,18.622C50.308,16.856,48.971,16,47.633,16a2.336,2.336,0,0,0-1.445.428l-2.247,1.605-.321.321-.8.535V10.864c0-3.317-2.354-5.564-5.832-5.564H11.948C8.631,5.3,5.1,7.226,5.1,10.864V46.817c0,3.317,3.317,6.474,6.848,6.474H36.987c3.264,0,5.832-2.836,5.832-6.474V31.89l7.169-4.976a1.672,1.672,0,0,0,.482-.589l1.819-1.284c.107-.107.268-.214.321-.321C52.77,24.453,54.107,22.206,51.539,18.622ZM28.908,30.178l-2.515,4.066m-1.5,2.3-.107.214a1.294,1.294,0,0,0,.054,1.445,1.378,1.378,0,0,0,1.017.535.679.679,0,0,0,.321-.054L36.559,36.17h.107l.321-.161h0l2.033-1.391v12.2c0,1.284-.749,2.622-1.98,2.622H11.948c-1.391,0-3-1.445-3-2.622V10.811c0-1.124,1.766-1.712,3-1.712H36.987c1.98,0,1.98,1.177,1.98,1.712v10.7l-8.079,5.671h0a1.25,1.25,0,0,0-.375.375h0l-.054.054m1.231,2.943,2.461,3.585-5.511,1.338Zm4.869,2.568-3.21-4.6,10.914-7.6,3.21,4.6Zm13.964-9.951-.91.642-3.157-4.441,1.124-.8h.054c.107,0,.8.054,1.819,1.552A4.244,4.244,0,0,1,50.522,23.169Z" fill="#fff"/></g></svg>