<svg xmlns="http://www.w3.org/2000/svg" width="51.572" height="52.034" viewBox="0 0 51.572 52.034"><g transform="translate(-5.6 -5)"><path d="M51.332,14.9h-2.37v2.891a4.278,4.278,0,0,1-8.557,0V14.9h-4.8v2.891a4.278,4.278,0,0,1-8.557,0V14.9h-4.8v2.891a4.278,4.278,0,0,1-8.557,0V14.9h-2.37A5.7,5.7,0,0,0,5.6,20.624V55.487a5.7,5.7,0,0,0,5.724,5.724H51.448a5.7,5.7,0,0,0,5.724-5.724V20.624A5.915,5.915,0,0,0,51.332,14.9ZM53.24,55.487a1.925,1.925,0,0,1-1.908,1.908H11.208A1.925,1.925,0,0,1,9.3,55.487V28.313a1.925,1.925,0,0,1,1.908-1.908H51.332a1.925,1.925,0,0,1,1.908,1.908V55.487Z" transform="translate(0 -4.176)" fill="#63b286"/><path d="M24.791,16.448a2.9,2.9,0,0,0,2.891-2.891V7.891A2.9,2.9,0,0,0,24.791,5,2.863,2.863,0,0,0,21.9,7.891v5.724A2.85,2.85,0,0,0,24.791,16.448Z" transform="translate(-6.876)" fill="#63b286"/><path d="M47.891,16.448a2.9,2.9,0,0,0,2.891-2.891V7.891a2.891,2.891,0,1,0-5.782,0v5.724A2.888,2.888,0,0,0,47.891,16.448Z" transform="translate(-16.621)" fill="#63b286"/><path d="M70.991,16.448a2.9,2.9,0,0,0,2.891-2.891V7.891A2.9,2.9,0,0,0,70.991,5,2.863,2.863,0,0,0,68.1,7.891v5.724A2.926,2.926,0,0,0,70.991,16.448Z" transform="translate(-26.365)" fill="#63b286"/><path d="M24.6,41.7h-3.18A1.616,1.616,0,0,0,19.8,43.319V46.5a1.616,1.616,0,0,0,1.619,1.619H24.6A1.616,1.616,0,0,0,26.218,46.5v-3.18A1.581,1.581,0,0,0,24.6,41.7Z" transform="translate(-5.99 -15.482)" fill="#63b286"/><path d="M41.057,41.7H37.819A1.616,1.616,0,0,0,36.2,43.319V46.5a1.616,1.616,0,0,0,1.619,1.619H41A1.616,1.616,0,0,0,42.618,46.5v-3.18A1.568,1.568,0,0,0,41.057,41.7Z" transform="translate(-12.908 -15.482)" fill="#63b286"/><path d="M57.5,41.7h-3.18A1.616,1.616,0,0,0,52.7,43.319V46.5a1.616,1.616,0,0,0,1.619,1.619H57.5A1.616,1.616,0,0,0,59.118,46.5v-3.18A1.654,1.654,0,0,0,57.5,41.7Z" transform="translate(-19.869 -15.482)" fill="#63b286"/><path d="M73.9,41.7h-3.18A1.616,1.616,0,0,0,69.1,43.319V46.5a1.616,1.616,0,0,0,1.619,1.619H73.9A1.616,1.616,0,0,0,75.518,46.5v-3.18A1.616,1.616,0,0,0,73.9,41.7Z" transform="translate(-26.787 -15.482)" fill="#63b286"/><path d="M24.6,56h-3.18A1.616,1.616,0,0,0,19.8,57.619V60.8a1.616,1.616,0,0,0,1.619,1.619H24.6A1.616,1.616,0,0,0,26.218,60.8v-3.18A1.616,1.616,0,0,0,24.6,56Z" transform="translate(-5.99 -21.514)" fill="#63b286"/><path d="M41.057,56H37.819A1.616,1.616,0,0,0,36.2,57.619V60.8a1.616,1.616,0,0,0,1.619,1.619H41A1.616,1.616,0,0,0,42.618,60.8v-3.18A1.6,1.6,0,0,0,41.057,56Z" transform="translate(-12.908 -21.514)" fill="#63b286"/><path d="M57.5,56h-3.18A1.616,1.616,0,0,0,52.7,57.619V60.8a1.616,1.616,0,0,0,1.619,1.619H57.5A1.616,1.616,0,0,0,59.118,60.8v-3.18A1.7,1.7,0,0,0,57.5,56Z" transform="translate(-19.869 -21.514)" fill="#63b286"/><path d="M73.9,56h-3.18A1.616,1.616,0,0,0,69.1,57.619V60.8a1.616,1.616,0,0,0,1.619,1.619H73.9A1.616,1.616,0,0,0,75.518,60.8v-3.18A1.654,1.654,0,0,0,73.9,56Z" transform="translate(-26.787 -21.514)" fill="#63b286"/><path d="M24.6,70.4h-3.18A1.616,1.616,0,0,0,19.8,72.019V75.2a1.616,1.616,0,0,0,1.619,1.619H24.6A1.616,1.616,0,0,0,26.218,75.2v-3.18A1.581,1.581,0,0,0,24.6,70.4Z" transform="translate(-5.99 -27.588)" fill="#63b286"/><path d="M41.057,70.4H37.819A1.616,1.616,0,0,0,36.2,72.019V75.2a1.616,1.616,0,0,0,1.619,1.619H41A1.616,1.616,0,0,0,42.618,75.2v-3.18A1.568,1.568,0,0,0,41.057,70.4Z" transform="translate(-12.908 -27.588)" fill="#63b286"/><path d="M57.5,70.4h-3.18A1.616,1.616,0,0,0,52.7,72.019V75.2a1.616,1.616,0,0,0,1.619,1.619H57.5A1.616,1.616,0,0,0,59.118,75.2v-3.18A1.654,1.654,0,0,0,57.5,70.4Z" transform="translate(-19.869 -27.588)" fill="#63b286"/></g></svg>