<svg xmlns="http://www.w3.org/2000/svg" width="587" height="59" viewBox="0 0 587 59"><g transform="translate(-1290 -202)"><g transform="translate(1290 202)" fill="#db2663" stroke="#dd326c" stroke-width="1"><circle cx="29.5" cy="29.5" r="29.5" stroke="none"/><circle cx="29.5" cy="29.5" r="29" fill="none"/></g><g transform="translate(1466 202)" fill="#fff" stroke="#dd326c" stroke-width="1"><circle cx="29.5" cy="29.5" r="29.5" stroke="none"/><circle cx="29.5" cy="29.5" r="29" fill="none"/></g><g transform="translate(1642 202)" fill="#fff" stroke="#dd326c" stroke-width="1"><circle cx="29.5" cy="29.5" r="29.5" stroke="none"/><circle cx="29.5" cy="29.5" r="29" fill="none"/></g><g transform="translate(1818 202)" fill="#fff" stroke="#dd326c" stroke-width="1"><circle cx="29.5" cy="29.5" r="29.5" stroke="none"/><circle cx="29.5" cy="29.5" r="29" fill="none"/></g><line x2="117" transform="translate(1701 231.5)" fill="none" stroke="#de4176" stroke-width="1"/><line x2="117" transform="translate(1525 231.5)" fill="none" stroke="#de4176" stroke-width="1"/><line x2="117" transform="translate(1349.5 231.5)" fill="none" stroke="#de4176" stroke-width="1"/><g transform="translate(1301.9 210.452)"><path d="M35.577,14.043a3.3,3.3,0,0,0-2.563-1.72,1.533,1.533,0,0,0-.948.281l-1.475,1.053-.211.211-.527.351V8.952A3.55,3.55,0,0,0,26.027,5.3H9.594C7.417,5.3,5.1,6.564,5.1,8.952v23.6A4.611,4.611,0,0,0,9.594,36.8H26.027a4.011,4.011,0,0,0,3.827-4.249v-9.8l4.7-3.265a1.1,1.1,0,0,0,.316-.386l1.194-.843c.07-.07.176-.14.211-.211C36.385,17.87,37.263,16.4,35.577,14.043ZM20.725,21.627,19.075,24.3m-.983,1.51-.07.14a.85.85,0,0,0,.035.948.9.9,0,0,0,.667.351.445.445,0,0,0,.211-.035l6.812-1.65h.07l.211-.105h0l1.334-.913v8.006c0,.843-.492,1.72-1.3,1.72H9.594a2.142,2.142,0,0,1-1.966-1.72V8.917c0-.737,1.159-1.124,1.966-1.124H26.027c1.3,0,1.3.772,1.3,1.124v7.022l-5.3,3.722h0a.82.82,0,0,0-.246.246h0l-.035.035m.808,1.931,1.615,2.352-3.617.878Zm3.2,1.685-2.107-3.02L30.8,15.553l2.107,3.02Zm9.164-6.531-.6.421-2.072-2.914.737-.527h.035c.07,0,.527.035,1.194,1.018A2.785,2.785,0,0,1,34.91,17.027Z" fill="#fff"/></g><g transform="translate(1829.852 218.376)"><path d="M14.836,26.248a2.441,2.441,0,0,1-1.723-.713L.713,13.866a2.434,2.434,0,0,1,0-3.443L2.436,8.7a2.434,2.434,0,0,1,3.443,0l8.956,8.416,15.8-16.4A2.435,2.435,0,0,1,32.36,0h0a2.435,2.435,0,0,1,1.721.713l1.723,1.721a2.434,2.434,0,0,1,0,3.442L16.558,25.534A2.438,2.438,0,0,1,14.836,26.248Z" fill="#db2663"/></g><g transform="translate(2097.721 169.971)"><path d="M23.67,18.035a4.509,4.509,0,0,1,4.367,3.381h2.209a1.14,1.14,0,1,1,0,2.254l-2.209,0a4.509,4.509,0,0,1-8.733,0l-17.99,0a1.14,1.14,0,1,1,0-2.254H19.3A4.509,4.509,0,0,1,23.67,18.035Zm0,2.254a2.254,2.254,0,1,0,2.254,2.254A2.254,2.254,0,0,0,23.67,20.289ZM15.78,9.017A4.678,4.678,0,0,1,20.289,12.4h9.957a1.232,1.232,0,0,1,1.314,1.127,1.232,1.232,0,0,1-1.314,1.127l-9.957,0a4.7,4.7,0,0,1-9.017,0l-9.957,0A1.232,1.232,0,0,1,0,13.526,1.232,1.232,0,0,1,1.314,12.4h9.957A4.678,4.678,0,0,1,15.78,9.017Zm0,2.254a2.254,2.254,0,1,0,2.254,2.254A2.254,2.254,0,0,0,15.78,11.272ZM7.89,0a4.509,4.509,0,0,1,4.367,3.381h17.99a1.232,1.232,0,0,1,1.314,1.127,1.232,1.232,0,0,1-1.314,1.127l-17.99,0a4.509,4.509,0,0,1-8.733,0l-2.209,0A1.232,1.232,0,0,1,0,4.509,1.232,1.232,0,0,1,1.314,3.381H3.524A4.509,4.509,0,0,1,7.89,0Zm0,2.254a2.254,2.254,0,1,0,2.254,2.254A2.254,2.254,0,0,0,7.89,2.254Z" transform="translate(-618 48)" fill="#dd326c" fill-rule="evenodd"/></g><g transform="translate(1646.684 214.226)"><g transform="translate(6.737 4.556)"><ellipse cx="3.281" cy="3.281" rx="3.281" ry="3.281" transform="translate(0 0)" fill="#db2663"/><path d="M31.885,5H8.659a1.659,1.659,0,0,0,0,3.318H31.885a1.659,1.659,0,1,0,0-3.318Z" transform="translate(2.614 -3.58)" fill="#db2663"/><ellipse cx="3.281" cy="3.281" rx="3.281" ry="3.281" transform="translate(0 9.374)" fill="#db2663"/><path d="M31.885,11H8.659a1.659,1.659,0,0,0,0,3.318H31.885a1.659,1.659,0,1,0,0-3.318Z" transform="translate(2.614 0.374)" fill="#db2663"/><ellipse cx="3.281" cy="3.281" rx="3.281" ry="3.281" transform="translate(0 19.686)" fill="#db2663"/><path d="M31.885,17H8.659a1.659,1.659,0,1,0,0,3.318H31.885a1.659,1.659,0,1,0,0-3.318Z" transform="translate(2.614 4.328)" fill="#db2663"/></g></g></g></svg>