<svg xmlns="http://www.w3.org/2000/svg" width="17.043" height="19.883" viewBox="0 0 17.043 19.883"><g transform="translate(0 0)"><path d="M27.838,9.545H25.566V6.7a1.717,1.717,0,0,0-1.7-1.7H14.2a1.717,1.717,0,0,0-1.7,1.7v11.93a1.717,1.717,0,0,0,1.7,1.7h2.272v2.84a1.717,1.717,0,0,0,1.7,1.7h9.658a1.717,1.717,0,0,0,1.7-1.7V11.249A1.717,1.717,0,0,0,27.838,9.545Zm-11.362,1.7v7.385H14.2V6.7h9.658v2.84H18.181A1.717,1.717,0,0,0,16.477,11.249Zm11.362,11.93H18.181V11.249h9.658Z" transform="translate(-12.5 -5)" fill="#fff"/></g></svg>