<svg xmlns="http://www.w3.org/2000/svg" width="19.081" height="19.081" viewBox="0 0 19.081 19.081"><g transform="translate(0 0)"><path d="M19.413,9.63,16.684,6.9a.578.578,0,1,0-.818.818L17.61,9.462h-6.99V2.475l1.744,1.744a.579.579,0,0,0,.411.168.577.577,0,0,0,.411-.986L10.451.668A.576.576,0,0,0,10.041.5.582.582,0,0,0,9.63.668L6.9,3.4a.578.578,0,1,0,.818.818L9.462,2.472V9.458H2.475L4.219,7.714A.578.578,0,1,0,3.4,6.9L.668,9.63A.576.576,0,0,0,.5,10.04a.582.582,0,0,0,.168.411l2.73,2.73a.579.579,0,0,0,.411.168.577.577,0,0,0,.411-.986L2.475,10.619H9.462v6.986L7.718,15.862a.578.578,0,1,0-.818.818l2.73,2.733a.576.576,0,0,0,.411.168.582.582,0,0,0,.411-.168l2.73-2.73a.578.578,0,1,0-.818-.818l-1.744,1.744v-6.99h6.986l-1.744,1.744a.58.58,0,0,0,.821.818l2.73-2.73a.576.576,0,0,0,.168-.411A.582.582,0,0,0,19.413,9.63Z" transform="translate(-0.5 -0.5)" fill="#fff"/></g></svg>