<?xml version="1.0" encoding="utf-8"?>
<!-- Generator: Adobe Illustrator 25.1.0, SVG Export Plug-In . SVG Version: 6.00 Build 0)  -->
<svg version="1.1" xmlns="http://www.w3.org/2000/svg" xmlns:xlink="http://www.w3.org/1999/xlink" x="0px" y="0px"
	 viewBox="0 0 100 125" style="enable-background:new 0 0 100 125;" xml:space="preserve">
<style type="text/css">
	.st0{fill:#63B286;}
</style>
<g id="Laag_2">
</g>
<g id="Laag_1">
	<path class="st0" d="M91.9,30.2c-2.3-3.3-4.8-4.9-7.3-4.9c-1.5,0-2.5,0.6-2.7,0.8l-4.2,3c-0.2,0.2-0.4,0.4-0.6,0.6l-1.5,1v-15
		c0-6.2-4.4-10.4-10.9-10.4H17.9c-6.2,0-12.8,3.6-12.8,10.4v67.2c0,6.2,6.2,12.1,12.8,12.1h46.8c6.1,0,10.9-5.3,10.9-12.1V55
		L89,45.7c0.4-0.3,0.7-0.7,0.9-1.1l3.4-2.4c0.2-0.2,0.5-0.4,0.6-0.6C94.2,41.1,96.7,36.9,91.9,30.2z M49.6,51.8l-4.7,7.6 M42.1,63.7
		l-0.2,0.4c-0.5,0.8-0.5,1.9,0.1,2.7c0.5,0.6,1.2,1,1.9,1c0.2,0,0.4,0,0.6-0.1L63.9,63c0,0,0.1,0,0.1,0c0,0,0.1,0,0.1,0
		c0.2-0.1,0.4-0.2,0.6-0.3c0,0,0,0,0,0c0,0,0,0,0,0l3.8-2.6v22.8c0,2.4-1.4,4.9-3.7,4.9H17.9c-2.6,0-5.6-2.7-5.6-4.9V15.6
		c0-2.1,3.3-3.2,5.6-3.2h46.8c3.7,0,3.7,2.2,3.7,3.2v20L53.3,46.2c0,0,0,0,0,0c-0.3,0.2-0.5,0.4-0.7,0.7c0,0,0,0,0,0L52.5,47
		 M54.8,52.5l4.6,6.7l-10.3,2.5L54.8,52.5z M63.9,57.3l-6-8.6l20.4-14.2l6,8.6L63.9,57.3z M90,38.7l-1.7,1.2l-5.9-8.3l2.1-1.5
		c0,0,0.1,0,0.1,0c0.2,0,1.5,0.1,3.4,2.9C90.2,36.1,90.1,38,90,38.7z"/>
</g>
</svg>
