<?xml version="1.0" encoding="utf-8"?>
<!-- Generator: Adobe Illustrator 25.1.0, SVG Export Plug-In . SVG Version: 6.00 Build 0)  -->
<svg version="1.1" id="Laag_1" xmlns="http://www.w3.org/2000/svg" xmlns:xlink="http://www.w3.org/1999/xlink" x="0px" y="0px"
	 viewBox="0 0 100 125" style="enable-background:new 0 0 100 125;" xml:space="preserve">
<style type="text/css">
	.st0{fill:#63B286;}
</style>
<path class="st0" d="M84.7,14.9h-4.1v5c0,4.1-3.3,7.4-7.4,7.4s-7.4-3.3-7.4-7.4v-5h-8.3v5c0,4.1-3.3,7.4-7.4,7.4
	c-4.1,0-7.4-3.3-7.4-7.4v-5h-8.3v5c0,4.1-3.3,7.4-7.4,7.4s-7.4-3.3-7.4-7.4v-5h-4.1c-5.5,0-9.9,4.4-9.9,9.9v60.3
	c0,5.5,4.4,9.9,9.9,9.9h69.4c5.5,0,9.9-4.4,9.9-9.9V24.8C94.6,19.4,90.2,14.9,84.7,14.9z M88,85.1c0,1.8-1.5,3.3-3.3,3.3H15.3
	c-1.8,0-3.3-1.5-3.3-3.3v-47c0-1.8,1.5-3.3,3.3-3.3h69.4c1.8,0,3.3,1.5,3.3,3.3V85.1L88,85.1z"/>
<path class="st0" d="M26.9,24.8c2.7,0,5-2.2,5-5V10c0-2.7-2.2-5-5-5s-5,2.2-5,5v9.9C21.9,22.6,24.1,24.8,26.9,24.8z"/>
<path class="st0" d="M50,24.8c2.7,0,5-2.2,5-5V10c0-2.7-2.2-5-5-5c-2.7,0-5,2.2-5,5v9.9C45,22.6,47.3,24.8,50,24.8z"/>
<path class="st0" d="M73.1,24.8c2.7,0,5-2.2,5-5V10c0-2.7-2.2-5-5-5s-5,2.2-5,5v9.9C68.2,22.6,70.4,24.8,73.1,24.8z"/>
<path class="st0" d="M28.1,41.7h-5.5c-1.5,0-2.8,1.2-2.8,2.8V50c0,1.5,1.2,2.8,2.8,2.8h5.5c1.5,0,2.8-1.2,2.8-2.8v-5.5
	C30.9,42.9,29.7,41.7,28.1,41.7z"/>
<path class="st0" d="M44.6,41.7H39c-1.5,0-2.8,1.2-2.8,2.8V50c0,1.5,1.2,2.8,2.8,2.8h5.5c1.5,0,2.8-1.2,2.8-2.8v-5.5
	C47.3,42.9,46.1,41.7,44.6,41.7z"/>
<path class="st0" d="M61,41.7h-5.5c-1.5,0-2.8,1.2-2.8,2.8V50c0,1.5,1.2,2.8,2.8,2.8H61c1.5,0,2.8-1.2,2.8-2.8v-5.5
	C63.7,42.9,62.5,41.7,61,41.7z"/>
<path class="st0" d="M77.4,41.7h-5.5c-1.5,0-2.8,1.2-2.8,2.8V50c0,1.5,1.2,2.8,2.8,2.8h5.5c1.5,0,2.8-1.2,2.8-2.8v-5.5
	C80.2,42.9,78.9,41.7,77.4,41.7z"/>
<path class="st0" d="M28.1,56h-5.5c-1.5,0-2.8,1.2-2.8,2.8v5.5c0,1.5,1.2,2.8,2.8,2.8h5.5c1.5,0,2.8-1.2,2.8-2.8v-5.5
	C30.9,57.3,29.7,56,28.1,56z"/>
<path class="st0" d="M44.6,56H39c-1.5,0-2.8,1.2-2.8,2.8v5.5c0,1.5,1.2,2.8,2.8,2.8h5.5c1.5,0,2.8-1.2,2.8-2.8v-5.5
	C47.3,57.3,46.1,56,44.6,56z"/>
<path class="st0" d="M61,56h-5.5c-1.5,0-2.8,1.2-2.8,2.8v5.5c0,1.5,1.2,2.8,2.8,2.8H61c1.5,0,2.8-1.2,2.8-2.8v-5.5
	C63.7,57.3,62.5,56,61,56z"/>
<path class="st0" d="M77.4,56h-5.5c-1.5,0-2.8,1.2-2.8,2.8v5.5c0,1.5,1.2,2.8,2.8,2.8h5.5c1.5,0,2.8-1.2,2.8-2.8v-5.5
	C80.2,57.3,78.9,56,77.4,56z"/>
<path class="st0" d="M28.1,70.4h-5.5c-1.5,0-2.8,1.2-2.8,2.8v5.5c0,1.5,1.2,2.8,2.8,2.8h5.5c1.5,0,2.8-1.2,2.8-2.8v-5.5
	C30.9,71.6,29.7,70.4,28.1,70.4z"/>
<path class="st0" d="M44.6,70.4H39c-1.5,0-2.8,1.2-2.8,2.8v5.5c0,1.5,1.2,2.8,2.8,2.8h5.5c1.5,0,2.8-1.2,2.8-2.8v-5.5
	C47.3,71.6,46.1,70.4,44.6,70.4z"/>
<path class="st0" d="M61,70.4h-5.5c-1.5,0-2.8,1.2-2.8,2.8v5.5c0,1.5,1.2,2.8,2.8,2.8H61c1.5,0,2.8-1.2,2.8-2.8v-5.5
	C63.7,71.6,62.5,70.4,61,70.4z"/>
</svg>
