<svg xmlns="http://www.w3.org/2000/svg" width="34.821" height="32.5" viewBox="0 0 34.821 32.5"><g transform="translate(1 -16.067)"><g transform="translate(-1 16.067)"><path d="M32.08,33.478H31.5V21.29a5.2,5.2,0,0,0-5.223-5.223c-2.569,0-4.416,1.9-4.623,4.7a2.868,2.868,0,0,0-2.341,2.849.548.548,0,0,0,.58.58h4.643a.548.548,0,0,0,.58-.58,2.868,2.868,0,0,0-2.3-2.841c.173-1.844,1.281-3.543,3.457-3.543a4.037,4.037,0,0,1,4.062,4.062V33.478H12.872a2.868,2.868,0,0,0-2.846-2.321A3.03,3.03,0,0,0,7.705,30a2.869,2.869,0,0,0-2.554,1.567,3.447,3.447,0,0,0-1.509-.406A2.868,2.868,0,0,0,.8,33.478H.741a1.741,1.741,0,1,0,0,3.482h.7L3,43.169a4.094,4.094,0,0,0,3.946,3.076h.464l-.754,1.509a.512.512,0,0,0,.232.754.349.349,0,0,0,.232.058.61.61,0,0,0,.522-.29l1.016-2.031h16.1l.987,1.973a.558.558,0,0,0,.522.348c.116,0,.174,0,.232-.116a.611.611,0,0,0,.232-.754l-.727-1.454a4.109,4.109,0,0,0,3.8-3.015L31.4,36.96h.683a1.741,1.741,0,1,0,0-3.482ZM23.9,23.031H20.589a1.765,1.765,0,0,1,1.683-1.161A1.69,1.69,0,0,1,23.9,23.031ZM3.643,32.317a1.95,1.95,0,0,1,1.393.638.525.525,0,0,0,.58.174.562.562,0,0,0,.406-.464,1.8,1.8,0,0,1,1.741-1.509,1.622,1.622,0,0,1,1.509.871.584.584,0,0,0,.638.29h.174a1.69,1.69,0,0,1,1.625,1.161H2.018A1.691,1.691,0,0,1,3.643,32.317ZM28.772,42.879a2.978,2.978,0,0,1-2.844,2.205H7.009a2.978,2.978,0,0,1-2.844-2.205L2.656,36.96H30.165ZM32.08,35.8H.741a.58.58,0,1,1,0-1.161H32.08a.58.58,0,1,1,0,1.161Z" transform="translate(1 -16.067)" fill="#64c29c"/><path d="M298.247,154.051a.548.548,0,0,0,.58-.58v-.29a.58.58,0,1,0-1.161,0v.29A.548.548,0,0,0,298.247,154.051Z" transform="translate(-277.355 -143.314)" fill="#64c29c"/><path d="M298.247,188.533a.582.582,0,0,0,.58-.58v-.638a.58.58,0,0,0-1.161,0v.638A.548.548,0,0,0,298.247,188.533Z" transform="translate(-277.355 -175.127)" fill="#64c29c"/><path d="M298.247,226.585a.548.548,0,0,0,.58-.58v-.29a.58.58,0,1,0-1.161,0V226A.548.548,0,0,0,298.247,226.585Z" transform="translate(-277.355 -210.915)" fill="#64c29c"/><path d="M332.38,154.051a.548.548,0,0,0,.58-.58v-.29a.58.58,0,0,0-1.161,0v.29A.548.548,0,0,0,332.38,154.051Z" transform="translate(-309.166 -143.314)" fill="#64c29c"/><path d="M331.8,187.952a.548.548,0,0,0,.58.58.582.582,0,0,0,.58-.58v-.638a.58.58,0,0,0-1.161,0Z" transform="translate(-309.166 -175.126)" fill="#64c29c"/><path d="M331.8,226a.58.58,0,1,0,1.161,0v-.29a.58.58,0,1,0-1.161,0Z" transform="translate(-309.166 -210.914)" fill="#64c29c"/><path d="M366.514,154.051a.548.548,0,0,0,.58-.58v-.29a.58.58,0,1,0-1.161,0v.29A.548.548,0,0,0,366.514,154.051Z" transform="translate(-340.979 -143.314)" fill="#64c29c"/><path d="M365.933,187.952a.548.548,0,0,0,.58.58.582.582,0,0,0,.58-.58v-.638a.58.58,0,1,0-1.161,0v.638Z" transform="translate(-340.978 -175.126)" fill="#64c29c"/><path d="M365.933,226a.58.58,0,1,0,1.161,0v-.29a.58.58,0,1,0-1.161,0Z" transform="translate(-340.978 -210.914)" fill="#64c29c"/></g></g></svg>