<svg xmlns="http://www.w3.org/2000/svg" width="22.081" height="19.526" viewBox="0 0 22.081 19.526"><g transform="translate(-0.759 -3.813)"><path d="M29.5,9.612a.685.685,0,0,0,.684-.684V7.954H28.812v.974A.684.684,0,0,0,29.5,9.612Z" transform="translate(-15.277 -2.255)" fill="#63b286"/><path d="M8.88,6.673a.911.911,0,0,1-.911.911h0a.911.911,0,0,1-.911-.911V4.724a.911.911,0,0,1,.911-.911h0a.911.911,0,0,1,.911.911Z" transform="translate(-3.43 0)" fill="#63b286"/><path d="M21.606,7.454H20.2v1.2a1.139,1.139,0,0,1-2.279,0v-1.2H15.359v1.2a1.139,1.139,0,0,1-2.279,0v-1.2H10.519v1.2a1.139,1.139,0,0,1-2.278,0v-1.2H5.679v1.2a1.139,1.139,0,0,1-2.278,0v-1.2H1.994A1.235,1.235,0,0,0,.761,8.687v2.7h22.08v-2.7A1.236,1.236,0,0,0,21.606,7.454Z" transform="translate(-0.001 -1.983)" fill="#63b286"/><path d="M19.508,6.673a.911.911,0,0,1-.911.911h0a.911.911,0,0,1-.911-.911V4.724a.911.911,0,0,1,.911-.911h0a.911.911,0,0,1,.911.911Z" transform="translate(-9.217 0)" fill="#63b286"/><path d="M30.135,6.673a.911.911,0,0,1-.912.911h0a.912.912,0,0,1-.911-.911V4.724a.911.911,0,0,1,.911-.911h0a.912.912,0,0,1,.912.911Z" transform="translate(-15.005 0)" fill="#63b286"/><path d="M40.763,6.673a.911.911,0,0,1-.911.911h0a.912.912,0,0,1-.912-.911V4.724a.911.911,0,0,1,.912-.911h0a.911.911,0,0,1,.911.911Z" transform="translate(-20.792 0)" fill="#63b286"/><path d="M18.6,20.262h-.88a.779.779,0,0,0-.778.778v.88a.779.779,0,0,0,.778.778h.88a.779.779,0,0,0,.778-.778v-.88A.778.778,0,0,0,18.6,20.262Z" transform="translate(-8.813 -8.958)" fill="#db2663"/><path d="M29.367,37.377h-.88a.779.779,0,0,0-.778.778v.88a.779.779,0,0,0,.778.778h.88a.779.779,0,0,0,.778-.778v-.88A.779.779,0,0,0,29.367,37.377Z" transform="translate(-14.676 -18.278)" fill="#63b286"/><path d="M29.367,28.819h-.88a.779.779,0,0,0-.778.778v.88a.779.779,0,0,0,.778.778h.88a.779.779,0,0,0,.778-.778V29.6A.779.779,0,0,0,29.367,28.819Z" transform="translate(-14.676 -13.618)" fill="#63b286"/><path d="M18.6,28.819h-.88a.779.779,0,0,0-.778.778v.88a.779.779,0,0,0,.778.778h.88a.779.779,0,0,0,.778-.778V29.6A.779.779,0,0,0,18.6,28.819Z" transform="translate(-8.813 -13.618)" fill="#63b286"/><path d="M7.834,28.819h-.88a.779.779,0,0,0-.778.778v.88a.779.779,0,0,0,.778.778h.88a.779.779,0,0,0,.778-.778V29.6A.779.779,0,0,0,7.834,28.819Z" transform="translate(-2.95 -13.618)" fill="#63b286"/><path d="M29.367,20.262h-.88a.779.779,0,0,0-.778.778v.88a.779.779,0,0,0,.778.778h.88a.779.779,0,0,0,.778-.778v-.88A.779.779,0,0,0,29.367,20.262Z" transform="translate(-14.676 -8.958)" fill="#63b286"/><path d="M7.834,37.377h-.88a.779.779,0,0,0-.778.778v.88a.779.779,0,0,0,.778.778h.88a.779.779,0,0,0,.778-.778v-.88A.779.779,0,0,0,7.834,37.377Z" transform="translate(-2.95 -18.278)" fill="#63b286"/><path d="M18.6,37.377h-.88a.779.779,0,0,0-.778.778v.88a.779.779,0,0,0,.778.778h.88a.779.779,0,0,0,.778-.778v-.88A.779.779,0,0,0,18.6,37.377Z" transform="translate(-8.813 -18.278)" fill="#63b286"/><path d="M40.132,20.262h-.88a.779.779,0,0,0-.778.778v.88a.779.779,0,0,0,.778.778h.88a.779.779,0,0,0,.778-.778v-.88A.779.779,0,0,0,40.132,20.262Z" transform="translate(-20.538 -8.958)" fill="#63b286"/><path d="M40.132,28.819h-.88a.779.779,0,0,0-.778.778v.88a.779.779,0,0,0,.778.778h.88a.779.779,0,0,0,.778-.778V29.6A.779.779,0,0,0,40.132,28.819Z" transform="translate(-20.538 -13.618)" fill="#63b286"/><path d="M40.132,37.377h-.88a.779.779,0,0,0-.778.778v.88a.779.779,0,0,0,.778.778h.88a.779.779,0,0,0,.778-.778v-.88A.779.779,0,0,0,40.132,37.377Z" transform="translate(-20.538 -18.278)" fill="#63b286"/><path d="M.759,17.08V29.331a1.235,1.235,0,0,0,1.233,1.233H21.605a1.235,1.235,0,0,0,1.234-1.233V17.08Zm5.359,10.9a1.235,1.235,0,0,1-1.233,1.234H4a1.235,1.235,0,0,1-1.233-1.234V27.1A1.235,1.235,0,0,1,4,25.868h.88A1.235,1.235,0,0,1,6.118,27.1Zm0-3.9a1.235,1.235,0,0,1-1.233,1.234H4a1.235,1.235,0,0,1-1.233-1.234V23.2A1.235,1.235,0,0,1,4,21.971h.88A1.235,1.235,0,0,1,6.118,23.2Zm4.9,3.9a1.235,1.235,0,0,1-1.233,1.234H8.907a1.235,1.235,0,0,1-1.233-1.234V27.1a1.235,1.235,0,0,1,1.233-1.234h.88A1.235,1.235,0,0,1,11.021,27.1v.88Zm0-3.9a1.235,1.235,0,0,1-1.233,1.234H8.907a1.235,1.235,0,0,1-1.233-1.234V23.2a1.235,1.235,0,0,1,1.233-1.233h.88A1.235,1.235,0,0,1,11.021,23.2v.88Zm0-3.9a1.235,1.235,0,0,1-1.233,1.233H8.907a1.235,1.235,0,0,1-1.233-1.233v-.88a1.235,1.235,0,0,1,1.233-1.233h.88a1.235,1.235,0,0,1,1.233,1.233v.88Zm4.9,7.795a1.235,1.235,0,0,1-1.233,1.234h-.88a1.235,1.235,0,0,1-1.234-1.234V27.1a1.235,1.235,0,0,1,1.234-1.234h.88A1.235,1.235,0,0,1,15.924,27.1Zm0-3.9a1.235,1.235,0,0,1-1.233,1.234h-.88a1.235,1.235,0,0,1-1.234-1.234V23.2a1.235,1.235,0,0,1,1.234-1.233h.88A1.235,1.235,0,0,1,15.924,23.2Zm0-3.9a1.235,1.235,0,0,1-1.233,1.233h-.88a1.235,1.235,0,0,1-1.234-1.233v-.88a1.235,1.235,0,0,1,1.234-1.233h.88a1.235,1.235,0,0,1,1.233,1.233Zm4.9,7.795a1.235,1.235,0,0,1-1.234,1.234h-.88a1.235,1.235,0,0,1-1.233-1.234V27.1a1.235,1.235,0,0,1,1.233-1.234h.88A1.235,1.235,0,0,1,20.828,27.1Zm0-3.9a1.235,1.235,0,0,1-1.234,1.234h-.88a1.235,1.235,0,0,1-1.233-1.234V23.2a1.235,1.235,0,0,1,1.233-1.233h.88A1.235,1.235,0,0,1,20.828,23.2Zm0-3.9a1.235,1.235,0,0,1-1.234,1.233h-.88a1.235,1.235,0,0,1-1.233-1.233v-.88a1.235,1.235,0,0,1,1.233-1.233h.88a1.235,1.235,0,0,1,1.234,1.233Z" transform="translate(0 -7.225)" fill="#63b286"/></g></svg>