<svg xmlns="http://www.w3.org/2000/svg" width="242.794" height="124.54" viewBox="0 0 242.794 124.54"><g transform="translate(0)"><g transform="translate(0.943)"><g transform="translate(168.402 29.512)"><rect width="4.888" height="55.65" fill="#464545"/></g><path d="M417.425,473.286a30.25,30.25,0,0,0-25.384,13.831V475.731h-4.886V531.38h4.886V503.558a25.382,25.382,0,1,1,50.763,0V531.38h4.888V503.558A30.3,30.3,0,0,0,417.425,473.286Z" transform="translate(-206.401 -446.218)" fill="#464545"/><path d="M317.908,473.286a30.252,30.252,0,0,0-25.384,13.831V475.731h-4.888V531.38h4.888V503.558a25.414,25.414,0,0,1,25.384-25.386,25.132,25.132,0,0,1,10.818,2.416l2.087-4.419A30,30,0,0,0,317.908,473.286Z" transform="translate(-287.636 -446.218)" fill="#464545"/><g transform="translate(103.519)"><path d="M374.91,545.989a30.308,30.308,0,0,1-30.279-30.266v-57.34h4.889v57.34a25.381,25.381,0,1,0,6.342-16.79l-3.669-3.229a30.274,30.274,0,1,1,22.716,50.285Z" transform="translate(-344.631 -458.383)" fill="#464545"/></g><g transform="translate(40.189 27.073)"><path d="M340.031,533.831A30.271,30.271,0,1,1,370.3,503.559,30.3,30.3,0,0,1,340.031,533.831Zm0-55.656a25.385,25.385,0,1,0,25.384,25.384A25.409,25.409,0,0,0,340.031,478.175Z" transform="translate(-309.763 -473.289)" fill="#464545"/></g><g transform="translate(49.103 36.157)"><path d="M355.21,491.062l-19.456,19.454-14.839-14.844,3.562-3.556L335.754,503.4l16.811-16.806a20.884,20.884,0,1,0,2.644,4.47Z" transform="translate(-314.671 -478.29)" fill="#63b286"/><path d="M321.671,488.384l-3.562,3.556,14.839,14.844L352.4,487.331a20.888,20.888,0,0,0-2.645-4.47l-16.811,16.806Z" transform="translate(-311.865 -474.559)" fill="#fff"/></g></g><g transform="translate(0 98.658)"><path d="M304.831,519.71a8.98,8.98,0,0,0-7.7-3.918,10.136,10.136,0,0,0,0,20.27,9.188,9.188,0,0,0,7.7-3.949v3.636h2.323V516.026h-2.323Zm-7.7-1.675c5.4,0,7.859,4.081,7.859,7.87a8.105,8.105,0,0,1-1.963,5.42,7.622,7.622,0,0,1-5.9,2.452,7.873,7.873,0,0,1,0-15.742Z" transform="translate(-287.117 -510.18)" fill="#63b286"/><path d="M314.738,524.7l-.692-.114c-2.4-.425-5.391-.952-5.462-3.284a2.461,2.461,0,0,1,.717-1.847,6.8,6.8,0,0,1,4.759-1.5h.147a8.072,8.072,0,0,1,5.89,1.982l.145.131,1.448-1.546-.151-.138a10.323,10.323,0,0,0-7.329-2.635l-.143,0a8.989,8.989,0,0,0-6.361,2.143,4.665,4.665,0,0,0-1.366,3.46c.042,4.125,4.1,4.8,7.679,5.4,3.044.487,6.2.994,6.123,3.622-.122,3.142-4.108,3.482-5.818,3.482a8.273,8.273,0,0,1-6.909-3.2l-.133-.189-1.709,1.52.094.145c1.616,2.483,4.839,3.965,8.616,3.965,1.874,0,8-.405,8.141-5.59C322.623,526.028,318.062,525.263,314.738,524.7Z" transform="translate(-272.05 -510.216)" fill="#63b286"/><path d="M330.924,524.7l-.688-.114c-2.4-.425-5.391-.952-5.46-3.284a2.454,2.454,0,0,1,.717-1.847,6.783,6.783,0,0,1,4.753-1.5h.151a8.056,8.056,0,0,1,5.887,1.982l.149.131,1.444-1.546-.145-.138a10.333,10.333,0,0,0-7.33-2.635l-.142,0a9,9,0,0,0-6.364,2.143,4.673,4.673,0,0,0-1.368,3.46c.042,4.125,4.1,4.8,7.679,5.4,3.048.487,6.2.994,6.126,3.622-.122,3.142-4.11,3.482-5.821,3.482a8.28,8.28,0,0,1-6.909-3.2l-.127-.189-1.715,1.52.1.145c1.618,2.483,4.839,3.965,8.616,3.965,1.873,0,8-.405,8.142-5.59C338.809,526.028,334.253,525.263,330.924,524.7Z" transform="translate(-258.838 -510.216)" fill="#63b286"/><rect width="2.324" height="19.803" transform="translate(93.522 5.766)" fill="#63b286"/><path d="M356.627,524.7l-.692-.114c-2.4-.425-5.391-.952-5.462-3.284a2.456,2.456,0,0,1,.719-1.847,6.79,6.79,0,0,1,4.757-1.5h.147a8.069,8.069,0,0,1,5.89,1.982l.145.131,1.448-1.546-.149-.138a10.331,10.331,0,0,0-7.331-2.635l-.142,0a8.994,8.994,0,0,0-6.362,2.143,4.665,4.665,0,0,0-1.366,3.46c.042,4.125,4.1,4.8,7.679,5.4,3.046.487,6.2.994,6.123,3.622-.12,3.142-4.108,3.482-5.818,3.482a8.275,8.275,0,0,1-6.909-3.2l-.133-.189-1.709,1.52.1.145c1.615,2.483,4.837,3.965,8.615,3.965,1.874,0,8-.405,8.139-5.59C364.513,526.028,359.951,525.263,356.627,524.7Z" transform="translate(-237.857 -510.216)" fill="#63b286"/><path d="M376.077,535.616a6.846,6.846,0,0,1-2.881.763c-2.8,0-3.355-1.629-3.355-4.255V520.557h6.566v-2.009h-6.566V512.7l-2.285.234v5.612h-4.108v2.009h4.108v11.566c0,4.383,1.791,6.424,5.64,6.424a8.59,8.59,0,0,0,3.722-1l.174-.085-.823-1.938Z" transform="translate(-224.81 -512.702)" fill="#63b286"/><path d="M395.367,519.71a8.973,8.973,0,0,0-7.69-3.918,10.135,10.135,0,0,0,0,20.27,9.178,9.178,0,0,0,7.69-3.949v3.636h2.323V516.026h-2.323Zm-7.69-1.675c5.4,0,7.861,4.081,7.861,7.87a8.125,8.125,0,0,1-1.965,5.42,7.622,7.622,0,0,1-5.9,2.452,7.873,7.873,0,0,1,0-15.742Z" transform="translate(-213.213 -510.18)" fill="#63b286"/><path d="M405.732,515.726a8.024,8.024,0,0,0-6.677,3.289V516.08H396.77V535.8h2.325V524.847a6.529,6.529,0,0,1,6.559-6.838h.1c4.177,0,6.577,2.367,6.577,6.486V535.8h2.323V524.455C414.657,519.151,411.151,515.726,405.732,515.726Z" transform="translate(-197.61 -510.234)" fill="#63b286"/><path d="M426.1,535.524l-.193.093a6.845,6.845,0,0,1-2.881.763c-2.8,0-3.355-1.629-3.355-4.255V520.557h6.569v-2.009h-6.569V512.7l-2.288.234v5.612h-4.1v2.009h4.1v11.566c0,4.383,1.794,6.424,5.643,6.424a8.571,8.571,0,0,0,3.722-1l.178-.085Z" transform="translate(-184.132 -512.702)" fill="#63b286"/></g></g></svg>