<svg xmlns="http://www.w3.org/2000/svg" width="25.08" height="20.5" viewBox="0 0 25.08 20.5"><g transform="translate(-2.5 -11.141)"><g transform="translate(2.5 11.141)"><path d="M66.271,32.421A1.258,1.258,0,1,0,64.715,34.4a3.175,3.175,0,0,1-.132,5.011,1.106,1.106,0,0,0-.185,1.582l.105.105a1.274,1.274,0,0,0,1.714.211,5.69,5.69,0,0,0,.053-8.887Z" transform="translate(-47.89 -26.603)" fill="#dd195b"/><path d="M77.455,19.068a1.276,1.276,0,0,0-1.741.185h0a1.245,1.245,0,0,0,.158,1.741,7.781,7.781,0,0,1,0,12.078,1.245,1.245,0,0,0-.158,1.741h0a1.252,1.252,0,0,0,1.741.211,10.233,10.233,0,0,0,0-15.955Z" transform="translate(-56.199 -16.784)" fill="#dd195b"/><path d="M13.524,11.5,7.115,16.431H3.977A1.474,1.474,0,0,0,2.5,17.908V24.87a1.474,1.474,0,0,0,1.477,1.477H7.115l6.435,4.932a1.7,1.7,0,0,0,2.743-1.371V12.844A1.721,1.721,0,0,0,13.524,11.5Z" transform="translate(-2.5 -11.141)" fill="#dd195b"/></g></g></svg>