<svg height="512pt" viewBox="-30 0 512 512" width="512pt" xmlns="http://www.w3.org/2000/svg">
    <path fill="#64C29C"
        d="m452.894531 29.941406v-29.941406h-100.871093c-41.789063 0-75.78125 33.996094-75.78125 75.78125v359.269531c0 41.785157 33.992187 75.777344 75.78125 75.777344v.175781h100.871093v-29.945312h-85.902343v-23.226563h85.902343v-29.941406h-85.902343v-23.230469h85.902343v-29.941406h-85.902343v-23.230469h85.902343v-29.941406h-85.902343v-23.230469h85.902343v-29.945312h-85.902343v-24.023438h85.902343v-29.9375h-85.902343v-23.230468h85.902343v-29.941407h-85.902343v-23.230469h85.902343v-29.941406h-85.902343v-23.230468h85.902343v-29.941407h-85.902343v-24.953125zm-115.84375 448.4375c-17.945312-6.21875-30.867187-23.292968-30.867187-43.328125v-359.269531c0-20.035156 12.921875-37.109375 30.867187-43.328125zm0 0" />
    <path fill="#64C29C"
        d="m121.832031 0c-33.765625 0-65.050781 19.402344-88.09375 54.636719-21.757812 33.265625-33.738281 77.210937-33.738281 123.730469 0 46.523437 11.980469 90.464843 33.738281 123.734374 14.109375 21.570313 31.308594 37.195313 50.273438 46.078126l-11.203125 107.976562c-1.472656 14.234375 3.179687 28.492188 12.765625 39.121094 9.585937 10.628906 23.289062 16.722656 37.601562 16.722656 14.308594 0 28.015625-6.09375 37.601563-16.722656 9.582031-10.628906 14.234375-24.886719 12.765625-39.101563l-11.15625-109.328125c17.882812-9.074218 34.109375-24.214844 47.535156-44.746094 21.757813-33.269531 33.742187-77.210937 33.742187-123.734374 0-46.519532-11.984374-90.460938-33.742187-123.730469-23.039063-35.234375-54.324219-54.636719-88.089844-54.636719zm21.929688 459.234375c.609375 5.90625-1.242188 11.582031-5.21875 15.988281-3.972657 4.410156-9.429688 6.835938-15.367188 6.835938-5.933593 0-11.390625-2.425782-15.367187-6.835938-3.972656-4.40625-5.824219-10.082031-5.214844-15.980468l10.679688-102.9375c2.832031.28125 5.6875.433593 8.558593.433593 3.832031 0 7.632813-.265625 11.390625-.757812zm41.101562-173.519531c-17.324219 26.488281-39.710937 41.078125-63.03125 41.078125-23.320312 0-45.707031-14.589844-63.03125-41.078125-18.609375-28.457032-28.859375-66.578125-28.859375-107.347656 0-40.769532 10.25-78.890626 28.859375-107.34375 17.324219-26.492188 39.710938-41.082032 63.03125-41.082032 23.320313 0 45.707031 14.589844 63.03125 41.082032 18.609375 28.453124 28.859375 66.574218 28.859375 107.34375 0 40.769531-10.25 78.890624-28.859375 107.347656zm0 0" />
    <path fill="#64C29C"
        d="m94.726562 95.699219c7.832032 0 15.332032-6.882813 14.96875-14.96875-.359374-8.113281-6.578124-14.972657-14.96875-14.972657-7.832031 0-15.332031 6.886719-14.972656 14.972657.363282 8.109375 6.582032 14.96875 14.972656 14.96875zm0 0" />
    <path fill="#64C29C"
        d="m145.726562 95.699219c7.832032 0 15.332032-6.882813 14.96875-14.96875-.359374-8.113281-6.578124-14.972657-14.96875-14.972657-7.832031 0-15.332031 6.886719-14.972656 14.972657.363282 8.109375 6.578125 14.96875 14.972656 14.96875zm0 0" />
    <path fill="#64C29C"
        d="m94.726562 166.535156c-7.832031 0-15.332031 6.886719-14.972656 14.972656.363282 8.109376 6.578125 14.96875 14.972656 14.96875 7.832032 0 15.332032-6.886718 14.96875-14.96875-.359374-8.113281-6.578124-14.972656-14.96875-14.972656zm0 0" />
    <path fill="#64C29C"
        d="m130.753906 181.503906c.363282 8.113282 6.578125 14.972656 14.972656 14.972656 7.832032 0 15.332032-6.886718 14.96875-14.972656-.359374-8.109375-6.578124-14.96875-14.96875-14.96875-7.832031 0-15.332031 6.886719-14.972656 14.96875zm0 0" />
    <path fill="#64C29C"
        d="m94.726562 259.738281c-7.832031 0-15.332031 6.882813-14.972656 14.96875.363282 8.113281 6.578125 14.972657 14.972656 14.972657 7.832032 0 15.332032-6.886719 14.96875-14.972657-.359374-8.109375-6.578124-14.96875-14.96875-14.96875zm0 0" />
    <path fill="#64C29C"
        d="m145.726562 259.738281c-7.832031 0-15.332031 6.882813-14.972656 14.96875.363282 8.113281 6.578125 14.972657 14.972656 14.972657 7.832032 0 15.332032-6.886719 14.96875-14.972657-.363281-8.109375-6.578124-14.96875-14.96875-14.96875zm0 0" />
    <path fill="#64C29C"
        d="m120.46875 146.089844c7.832031 0 15.332031-6.886719 14.972656-14.972656-.363281-8.109376-6.578125-14.96875-14.972656-14.96875-7.832031 0-15.332031 6.882812-14.972656 14.96875.367187 8.113281 6.578125 14.972656 14.972656 14.972656zm0 0" />
    <path fill="#64C29C"
        d="m66.554688 146.089844c7.832031 0 15.335937-6.886719 14.972656-14.972656-.363282-8.109376-6.578125-14.96875-14.972656-14.96875-7.828126 0-15.332032 6.882812-14.96875 14.96875.363281 8.113281 6.578124 14.972656 14.96875 14.972656zm0 0" />
    <path fill="#64C29C"
        d="m173.410156 116.148438c-7.832031 0-15.332031 6.882812-14.96875 14.96875.363282 8.113281 6.578125 14.972656 14.96875 14.972656 7.832032 0 15.332032-6.886719 14.972656-14.972656-.363281-8.109376-6.578124-14.96875-14.972656-14.96875zm0 0" />
    <path fill="#64C29C"
        d="m135.441406 228.105469c-.363281-8.109375-6.578125-14.96875-14.972656-14.96875-7.832031 0-15.332031 6.886719-14.972656 14.96875.363281 8.113281 6.578125 14.972656 14.972656 14.972656 7.832031 0 15.332031-6.886719 14.972656-14.972656zm0 0" />
    <path fill="#64C29C"
        d="m66.554688 213.136719c-7.828126 0-15.332032 6.886719-14.96875 14.96875.363281 8.113281 6.578124 14.972656 14.96875 14.972656 7.832031 0 15.335937-6.886719 14.972656-14.972656-.363282-8.109375-6.578125-14.96875-14.972656-14.96875zm0 0" />
    <path fill="#64C29C"
        d="m173.410156 213.136719c-7.832031 0-15.332031 6.886719-14.96875 14.96875.363282 8.113281 6.578125 14.972656 14.96875 14.972656 7.832032 0 15.332032-6.886719 14.972656-14.972656-.363281-8.109375-6.578124-14.96875-14.972656-14.96875zm0 0" />
    </svg>