<?xml version="1.0" encoding="iso-8859-1"?>
<!-- Generator: Adobe Illustrator 19.0.0, SVG Export Plug-In . SVG Version: 6.00 Build 0)  -->
<svg version="1.1" id="Capa_1" xmlns="http://www.w3.org/2000/svg" xmlns:xlink="http://www.w3.org/1999/xlink" x="0px" y="0px"
	 viewBox="0 0 511.994 511.994" style="enable-background:new 0 0 511.994 511.994;" xml:space="preserve">
<g>
	<g>
		<path fill="#64C29C"  d="M402.273,394.629l-89.306-213.314l7.035-63.988V10.66c0-3.198-1.438-6.219-3.896-8.25
			c-2.479-2.01-5.708-2.813-8.854-2.208c-0.542,0.104-52.771,10.458-93.938,10.458c-41.083,0-93.354-10.354-93.896-10.458
			c-3.125-0.615-6.375,0.188-8.854,2.208c-2.458,2.031-3.896,5.052-3.896,8.25l0.063,107.844l36.771,330.99
			c3.958,35.635,33.979,62.5,69.833,62.5s65.875-26.865,69.833-62.5l9.199-82.805l46.072,65.534
			c7.188,10.26,18.396,15.802,29.854,15.802c6.375,0,12.833-1.708,18.729-5.271C403.148,433.004,409.71,412.306,402.273,394.629z
			 M128.002,23.452c18.646,3.198,54.396,8.542,85.354,8.542c30.938,0,66.667-5.344,85.313-8.542l0.014,20.996
			c-16.566,2.921-54.182,8.879-85.368,8.879c-31.18,0-68.747-5.956-85.313-8.876V23.452z M261.96,447.14
			c-2.75,24.813-23.667,43.521-48.625,43.521s-45.875-18.708-48.625-43.521l-36.708-329.813V66.106
			c18.563,3.195,54.225,8.555,85.313,8.555c31.105,0,66.819-5.366,85.383-8.561l0.034,50.051l-2.733,24.634l-20.475-48.905
			c-1.188-2.865-3.583-5.063-6.521-6.021c-2.958-0.958-6.167-0.604-8.833,1.01l-26.927,16.271
			c-5.482-4.401-12.345-7.146-19.906-7.146c-17.646,0-32,14.354-32,32c0,2.103,0.232,4.151,0.621,6.142l-27.475,16.598
			c-2.521,1.521-4.313,4.031-4.917,6.927c-0.604,2.896,0.021,5.917,1.708,8.333l122.555,174.323L261.96,447.14z M224.002,127.994
			c0,5.885-4.792,10.667-10.667,10.667s-10.667-4.781-10.667-10.667c0-5.885,4.792-10.667,10.667-10.667
			S224.002,122.108,224.002,127.994z M375.981,424.494c-6.771,4.115-15.417,2.135-20.083-4.531L175.294,163.077l17.629-10.647
			c5.557,4.651,12.616,7.564,20.413,7.564c1.328,0,2.594-0.234,3.88-0.392l7.911,15.829c1.875,3.74,5.646,5.896,9.542,5.896
			c1.604,0,3.229-0.365,4.771-1.125c5.271-2.635,7.396-9.042,4.771-14.313l-7.871-15.747c5.543-5.756,8.996-13.544,8.996-22.148
			c0-2.331-0.281-4.592-0.757-6.783l16.048-9.697l121.979,291.354C385.96,410.89,383.127,420.181,375.981,424.494z"/>
	</g>
</g>
<g>
</g>
<g>
</g>
<g>
</g>
<g>
</g>
<g>
</g>
<g>
</g>
<g>
</g>
<g>
</g>
<g>
</g>
<g>
</g>
<g>
</g>
<g>
</g>
<g>
</g>
<g>
</g>
<g>
</g>
</svg>
