<?xml version="1.0" encoding="iso-8859-1"?>
<!-- Generator: Adobe Illustrator 19.0.0, SVG Export Plug-In . SVG Version: 6.00 Build 0)  -->
<svg version="1.1" id="Capa_1" xmlns="http://www.w3.org/2000/svg" xmlns:xlink="http://www.w3.org/1999/xlink" x="0px" y="0px"
	 viewBox="0 0 512 512" style="enable-background:new 0 0 512 512;" xml:space="preserve">
<g>
	<g>
		<path fill="#64C29C"  d="M504.5,36.073H358.686l0.95-7.602c0.267-2.135-0.396-4.281-1.819-5.894c-1.424-1.613-3.472-2.537-5.623-2.537H320.13
			c-4.143,0-7.5,3.358-7.5,7.5v8.532H199.371V27.54c0-4.142-3.357-7.5-7.5-7.5h-32.064c-2.151,0-4.199,0.924-5.623,2.537
			c-1.423,1.613-2.086,3.759-1.819,5.894l0.95,7.602H7.5c-4.143,0-7.5,3.358-7.5,7.5c0,4.142,3.357,7.5,7.5,7.5h147.689l3.058,24.49
			c-9.9,2.943-22.675,6.74-32.253,9.608c-17.701,5.302-31.563,19.009-37.08,36.666l-30.513,97.64
			c-2.184,6.987,0.875,14.637,7.273,18.192l62.583,34.769v204.006c0,8.556,6.961,15.516,15.517,15.516h224.451
			c8.556,0,15.517-6.96,15.517-15.516V272.438l62.583-34.769c6.398-3.555,9.457-11.205,7.273-18.192l-30.513-97.639
			c-5.518-17.658-19.379-31.365-37.081-36.667c-8.462-2.535-22.667-6.76-32.255-9.612l3.061-24.487H504.5c4.143,0,7.5-3.358,7.5-7.5
			C512,39.43,508.643,36.073,504.5,36.073z M327.628,35.041h0.001h16.068l-6.141,49.129h-9.928V35.041z M199.371,51.073h113.258
			V82.74c-16.146,6.104-36.028,9.445-56.629,9.445c-20.6,0-40.483-3.342-56.629-9.445V51.073z M256,107.186
			c20.221,0,39.937-3.011,56.714-8.564c-11.181,20.487-32.788,33.645-56.714,33.645c-23.836,0-45.509-13.172-56.711-33.644
			C216.065,104.175,235.781,107.186,256,107.186z M184.371,35.041V84.17h-9.928l-6.141-49.129H184.371z M128.258,255.278
			L72.96,224.557c-0.213-0.118-0.314-0.373-0.242-0.605l5.111-16.355l50.429,28.016V255.278z M128.258,218.454l-45.86-25.478
			l20.833-66.664c0.515-1.649,1.134-3.25,1.841-4.798l19.892,51.252c2.186,5.631,3.294,11.549,3.294,17.589V218.454z
			 M439.282,223.952c0.072,0.232-0.029,0.487-0.242,0.605l-55.298,30.721v-19.665l50.429-28.016L439.282,223.952z M408.77,126.312
			l20.833,66.664l-45.86,25.478v-28.099c0-6.041,1.108-11.958,3.294-17.589l19.892-51.252
			C407.636,123.062,408.254,124.662,408.77,126.312z M364.338,94.353c5.925,1.768,11.885,3.547,17.363,5.188
			c5.445,1.631,10.383,4.362,14.586,7.93l-23.236,59.868c-2.859,7.368-4.31,15.112-4.31,23.017v286.089
			c0,0.285-0.231,0.516-0.517,0.516h-224.45c-0.285,0-0.517-0.231-0.517-0.516V190.354c0-7.904-1.45-15.648-4.31-23.017
			l-23.236-59.867c4.204-3.568,9.141-6.299,14.585-7.93c5.48-1.641,11.438-3.419,17.361-5.185
			c12.169,49.491,57.042,84.975,108.341,84.975c23.353,0,45.71-7.142,64.656-20.655c3.372-2.405,4.156-7.089,1.751-10.461
			c-2.405-3.372-7.087-4.158-10.462-1.751c-16.388,11.688-35.733,17.867-55.945,17.867c-41.736,0-78.551-27.141-91.57-65.976
			c1.023,0.52,2.176,0.814,3.393,0.814h15.07c12.5,28.973,41.23,48.097,73.107,48.097c31.992,0,60.63-19.086,73.124-48.097h15.054
			c1.218,0,2.373-0.295,3.397-0.817c-3.479,10.36-8.72,20.157-15.455,28.785c-2.549,3.265-1.968,7.979,1.297,10.527
			c1.371,1.07,2.996,1.588,4.61,1.588c2.23,0,4.438-0.991,5.917-2.886C353.595,123.997,360.591,109.55,364.338,94.353z"/>
	</g>
</g>
<g>
</g>
<g>
</g>
<g>
</g>
<g>
</g>
<g>
</g>
<g>
</g>
<g>
</g>
<g>
</g>
<g>
</g>
<g>
</g>
<g>
</g>
<g>
</g>
<g>
</g>
<g>
</g>
<g>
</g>
</svg>
