<svg height="512" viewBox="0 0 128 128" width="512" xmlns="http://www.w3.org/2000/svg"><path fill="#64C29C"  d="m111.362 50.906h-67.707a1.75 1.75 0 0 0 -1.75 1.75v2.463a13.046 13.046 0 0 0 -9.594-4.213h-8.146a13.046 13.046 0 0 0 -9.594 4.213v-25.667a1.75 1.75 0 0 0 -1.75-1.75h-11.083a1.75 1.75 0 0 0 -1.75 1.75v69.1a1.75 1.75 0 0 0 1.75 1.75h12a1.75 1.75 0 0 0 1.75-1.75 10.418 10.418 0 0 1 10.406-10.41h76.188a10.418 10.418 0 0 1 10.406 10.406 1.75 1.75 0 0 0 1.75 1.75h12a1.75 1.75 0 0 0 1.75-1.75v-31.016a16.644 16.644 0 0 0 -16.626-16.626zm-65.962 13.094v-9.594h12.088v18.08h-12.088zm-21.24-9.594h8.146a9.61 9.61 0 0 1 9.434 7.844h-27.009a9.61 9.61 0 0 1 9.434-7.844zm-9.589 11.344h27.329v6.736h-27.329zm109.917 31.05h-8.609a13.927 13.927 0 0 0 -13.8-12.156h-76.185a13.927 13.927 0 0 0 -13.794 12.156h-8.612v-65.6h7.583v43.036a1.75 1.75 0 0 0 1.75 1.75h111.667zm0-24.312h-63.5v-18.082h50.374a13.141 13.141 0 0 1 13.126 13.125z"/></svg>