<?xml version="1.0" encoding="iso-8859-1"?>
<!-- Generator: Adobe Illustrator 19.0.0, SVG Export Plug-In . SVG Version: 6.00 Build 0)  -->
<svg version="1.1" id="Capa_1" xmlns="http://www.w3.org/2000/svg" xmlns:xlink="http://www.w3.org/1999/xlink" x="0px" y="0px"
	 viewBox="0 0 512 512" style="enable-background:new 0 0 512 512;" xml:space="preserve">
<g>
	<g>
		<path fill="#64C29C"  d="M187.733,128C84.215,128,0,212.215,0,315.733s84.215,187.733,187.733,187.733s187.733-84.215,187.733-187.733
			S291.251,128,187.733,128z M187.733,486.4c-94.106,0-170.667-76.561-170.667-170.667s76.561-170.667,170.667-170.667
			S358.4,221.628,358.4,315.733S281.839,486.4,187.733,486.4z"/>
	</g>
</g>
<g>
	<g>
		<path fill="#64C29C"  d="M76.8,315.733h17.067c0-51.755,42.112-93.867,93.867-93.867V204.8C126.566,204.8,76.8,254.566,76.8,315.733z"/>
	</g>
</g>
<g>
	<g>
		<path fill="#64C29C"  d="M281.6,315.733c0,51.755-42.112,93.867-93.867,93.867v17.067c61.167,0,110.933-49.766,110.933-110.933H281.6z"/>
	</g>
</g>
<g>
	<g>
		<path fill="#64C29C"  d="M503.467,418.133H332.8V435.2h161.528c-4.156,28.911-29.082,51.2-59.128,51.2H196.267v17.067H435.2
			c42.351,0,76.8-34.449,76.8-76.8C512,421.948,508.186,418.133,503.467,418.133z"/>
	</g>
</g>
<g>
	<g>
		<path fill="#64C29C"  d="M503.467,349.867H358.4v17.067h135.927c-4.156,28.911-29.082,51.2-59.128,51.2H324.267V435.2H435.2
			c42.351,0,76.8-34.449,76.8-76.8C512,353.681,508.186,349.867,503.467,349.867z"/>
	</g>
</g>
<g>
	<g>
		<path fill="#64C29C"  d="M503.467,281.6H366.933v17.067h127.394c-4.156,28.911-29.082,51.2-59.128,51.2h-76.8v17.067h76.8
			c42.351,0,76.8-34.449,76.8-76.8C512,285.414,508.186,281.6,503.467,281.6z"/>
	</g>
</g>
<g>
	<g>
		<path fill="#64C29C"  d="M503.467,213.333H341.333V230.4h152.994c-4.156,28.911-29.082,51.2-59.128,51.2h-68.267v17.067H435.2
			c42.351,0,76.8-34.449,76.8-76.8C512,217.156,508.186,213.333,503.467,213.333z"/>
	</g>
</g>
<g>
	<g>
		<path fill="#64C29C"  d="M503.467,145.067H264.533v17.067h229.794c-4.156,28.911-29.082,51.2-59.128,51.2h-93.867V230.4H435.2
			c42.351,0,76.8-34.458,76.8-76.8C512,148.89,508.186,145.067,503.467,145.067z"/>
	</g>
</g>
<g>
	<g>
		<path fill="#64C29C"  d="M503.467,76.8H128c-2.261,0-4.429,0.905-6.033,2.5c-1.604,1.596-2.5,3.772-2.5,6.033c0,22.042,9.489,43.025,26.018,57.6
			l11.281-12.8c-10.701-9.429-17.604-22.323-19.618-36.267h357.18c-4.156,28.911-29.082,51.2-59.128,51.2H264.533v17.067H435.2
			c42.351,0,76.8-34.458,76.8-76.8C512,80.623,508.186,76.8,503.467,76.8z"/>
	</g>
</g>
<g>
	<g>
		<path fill="#64C29C"  d="M503.467,8.533H128c-4.71,0-8.533,3.823-8.533,8.533c0,42.342,34.458,76.8,76.8,76.8H435.2
			c42.351,0,76.8-34.458,76.8-76.8C512,12.356,508.186,8.533,503.467,8.533z M435.2,76.8H196.267
			c-30.046,0-54.972-22.289-59.127-51.2h357.188C490.172,54.511,465.246,76.8,435.2,76.8z"/>
	</g>
</g>
<g>
</g>
<g>
</g>
<g>
</g>
<g>
</g>
<g>
</g>
<g>
</g>
<g>
</g>
<g>
</g>
<g>
</g>
<g>
</g>
<g>
</g>
<g>
</g>
<g>
</g>
<g>
</g>
<g>
</g>
</svg>
