<?xml version='1.0' encoding='iso-8859-1'?>
<svg version="1.1" xmlns="http://www.w3.org/2000/svg" viewBox="0 0 470.719 470.719" xmlns:xlink="http://www.w3.org/1999/xlink" enable-background="new 0 0 470.719 470.719">
  <g>
    <path fill="#64C29C"  d="m468.523,171.192l-12.547-12.547c-0.166-0.206-0.344-0.406-0.535-0.597s-0.391-0.369-0.597-0.535l-141.274-141.274c-0.166-0.205-0.343-0.404-0.534-0.595-0.191-0.191-0.39-0.367-0.595-0.533l-12.554-12.555c-1.626-1.626-3.907-2.416-6.192-2.144-18.04,2.152-34.365,10.08-47.213,22.927-12.846,12.846-20.774,29.172-22.926,47.212-0.272,2.284 0.518,4.566 2.144,6.192l13.114,13.114c0.008,0.008 40.81,40.811 40.81,40.811l-6.758,6.758c-6.513,6.513-7.94,16.192-4.329,24.12l-38.171,38.171c-0.928-0.399-1.934-0.615-2.963-0.615-1.989,0-3.897,0.79-5.303,2.197l-215.812,215.812c-8.384,8.384-8.384,22.026-1.06581e-14,30.41l16.54,16.54c4.062,4.062 9.461,6.298 15.205,6.298s11.144-2.237 15.205-6.298l215.813-215.811c1.406-1.406 2.196-3.314 2.196-5.303 0-1.03-0.216-2.036-0.615-2.963l38.172-38.171c2.827,1.288 5.87,1.955 8.922,1.955 5.504,0 11.008-2.095 15.198-6.285l6.757-6.757 41.539,41.54c0.001,0.002 13.114,13.114 13.114,13.114 1.415,1.415 3.326,2.197 5.303,2.197 0.296,0 0.593-0.018 0.89-0.053 18.041-2.153 34.366-10.081 47.212-22.927 12.846-12.845 20.773-29.17 22.928-47.211 0.272-2.285-0.518-4.568-2.144-6.194zm-13.268,7.946c-2.303,13.266-8.524,25.253-18.123,34.852-9.599,9.599-21.586,15.82-34.852,18.123l-5.149-5.149 15.899-15.899c0.003-0.003 37.075-37.075 37.075-37.075l5.15,5.148zm-110.271-4.323c-0.008-0.008-49.449-49.448-49.449-49.448-0.003-0.003-40.808-40.808-40.808-40.808l10.597-10.597 131.797,131.797-10.597,10.597c0-2.84217e-14-41.532-41.533-41.54-41.541zm-311.549,278.64l-16.54-16.54c-2.536-2.536-2.536-6.662 0-9.197l88.585-88.585 42.412-42.412 42.405-42.405 37.106-37.106 25.738,25.738-31.801,31.801-9.827-9.828c-2.929-2.93-7.678-2.929-10.606,0-2.929,2.93-2.929,7.678 0,10.606l9.827,9.828-31.801,31.801-9.827-9.828c-2.928-2.929-7.676-2.929-10.605-0.001-2.931,2.93-2.931,7.678-0.001,10.608l9.827,9.828-31.801,31.801-9.827-9.828c-2.929-2.93-7.678-2.929-10.606,0-2.929,2.932-2.928,7.678 0,10.606l9.827,9.828-83.285,83.285c-1.229,1.229-2.861,1.905-4.599,1.905-1.739-0.001-3.373-0.677-4.601-1.905zm207.917-243.511l36.818-36.818 19.053,19.052-36.819,36.818-19.052-19.052zm71.782-23.068l-28.27-28.269c-0.323-0.564-0.718-1.099-1.2-1.581-0.325-0.325-0.676-0.609-1.041-0.862-1.637-2.516-1.355-5.927 0.851-8.132l6.757-6.757 38.843,38.843-6.757,6.757c-2.533,2.532-6.653,2.53-9.183,0.001zm-21.193-171.053l5.155,5.155-15.866,15.865c-0.01,0.01-37.109,37.109-37.109,37.109l-5.155-5.155c2.303-13.265 8.523-25.252 18.122-34.852 9.601-9.599 21.588-15.82 34.853-18.122zm136.992,158.125l-94.674-94.673c-2.929-2.928-7.676-2.929-10.606-0.002-2.93,2.93-2.93,7.679-0.002,10.608l94.674,94.674-10.597,10.597-131.796-131.797 10.597-10.597 15.91,15.909c1.465,1.464 3.385,2.197 5.304,2.197s3.839-0.732 5.304-2.197c2.929-2.93 2.928-7.678 0-10.606l-15.91-15.91 10.566-10.566 131.797,131.797-10.567,10.566z"/>
  </g>
</svg>
