<?xml version="1.0" encoding="iso-8859-1"?>
<!-- Generator: Adobe Illustrator 19.0.0, SVG Export Plug-In . SVG Version: 6.00 Build 0)  -->
<svg version="1.1" id="Capa_1" xmlns="http://www.w3.org/2000/svg" xmlns:xlink="http://www.w3.org/1999/xlink" x="0px" y="0px"
	 viewBox="0 0 480 480" style="enable-background:new 0 0 480 480;" xml:space="preserve">
<g>
	<g>
		<path fill="#64C29C"  d="M479.999,24V8h-48c0-4.418-3.582-8-8-8h-168c-1.909-0.002-3.754,0.682-5.2,1.928L196.903,48.12
			c-1.632-0.04-3.264-0.12-4.904-0.12C85.992,47.97,0.031,133.882,0.001,239.889c-0.014,50.817,20.124,99.567,55.999,135.559V424
			c0,13.255,10.745,24,24,24s24-10.745,24-24c0-4.418,3.582-8,8-8s8,3.582,8,8v32c0,13.255,10.745,24,24,24s24-10.745,24-24v-25.672
			c7.958,1.054,15.973,1.612,24,1.672c46.71,0.009,91.812-17.063,126.808-48h89.192c4.418,0,8-3.582,8-8v-16h64v-16h-64v-64h64v-16
			h-64v-16c0-4.418-3.582-8-8-8h-24c-0.01-47.232-17.43-92.804-48.928-128h88.928c4.418,0,8-3.582,8-8h48V88h-48V24H479.999z
			 M151.999,456c0,4.418-3.582,8-8,8s-8-3.582-8-8v-32c0-13.255-10.745-24-24-24s-24,10.745-24,24c0,4.418-3.582,8-8,8s-8-3.582-8-8
			v-72h40v8c0,13.255,10.745,24,24,24h16V456z M190.343,225.656L204.687,240h-68.688c-13.255,0-24,10.745-24,24v40h-40V176h200
			v60.688l-46.344-46.344c-9.877-9.442-25.435-9.442-35.312,0C180.609,200.102,180.609,215.898,190.343,225.656z M111.999,320v16
			h-40v-16H111.999z M191.999,416c-8.031-0.051-16.05-0.65-24-1.792V384h124.912C263.373,404.806,228.13,415.982,191.999,416z
			 M399.999,256v112h-264c-4.418,0-8-3.582-8-8v-8h64v-16h-64v-16h64v-16h-64v-16h64v-16h-64v-8c0-4.418,3.582-8,8-8h88
			c4.418-0.001,7.999-3.583,7.998-8.002c0-2.121-0.843-4.154-2.342-5.654l-28-28c-3.488-3.51-3.488-9.178,0-12.688
			c3.55-3.391,9.138-3.391,12.688,0l52,52c1.5,1.5,3.534,2.344,5.656,2.344H399.999z M367.999,240h-80v-72c0-4.418-3.582-8-8-8
			h-177.28c19.235-21.555,45.613-35.432,74.272-39.072l-1.984-15.872c-37.187,4.727-70.767,24.61-92.792,54.944H63.999
			c-4.418,0-8,3.582-8,8v183.608c-25.964-31.386-40.117-70.874-40-111.608C15.778,143.019,94.217,64.221,191.198,63.999
			c20.21-0.046,40.275,3.397,59.314,10.177l-20.168,20.168c-9.751,9.751-9.751,25.561,0,35.312s25.561,9.751,35.312,0l31.04-31.04
			c5.339,3.954,10.448,8.209,15.304,12.744V112h0.68C347.956,145.23,367.969,191.537,367.999,240z M415.999,96h-97.008
			c-3.48-3.072-7.128-5.992-10.848-8.8l9.512-9.52l-11.312-11.312l-52,52c-3.55,3.391-9.138,3.391-12.688,0
			c-3.488-3.51-3.488-9.178,0-12.688l52-52l-11.312-11.336L263.047,61.64c-14.05-5.621-28.723-9.543-43.704-11.68L258.959,16h157.04
			V96z"/>
	</g>
</g>
<g>
	<g>
		<path fill="#64C29C"  d="M79.865,38.666c-0.568-3.357-3.197-5.986-6.554-6.554C60.275,29.934,50.061,19.717,47.887,6.68
			c-0.737-4.356-4.866-7.291-9.222-6.554c-3.357,0.568-5.986,3.197-6.554,6.554C29.938,19.717,19.724,29.934,6.687,32.112
			c-4.356,0.737-7.291,4.866-6.554,9.222c0.568,3.357,3.197,5.986,6.554,6.554c13.036,2.178,23.25,12.395,25.424,25.432
			c0.737,4.356,4.866,7.291,9.222,6.554c3.357-0.568,5.986-3.197,6.554-6.554c2.174-13.037,12.388-23.254,25.424-25.432
			C77.668,47.151,80.602,43.022,79.865,38.666z M39.999,51.424C36.88,46.985,33.015,43.119,28.575,40
			c4.439-3.119,8.305-6.985,11.424-11.424c3.119,4.439,6.985,8.305,11.424,11.424C46.984,43.119,43.119,46.985,39.999,51.424z"/>
	</g>
</g>
<g>
	<g>
		<rect fill="#64C29C"  x="87.999" y="192" width="16" height="16"/>
	</g>
</g>
<g>
	<g>
		<rect fill="#64C29C"  x="119.999" y="208" width="16" height="16"/>
	</g>
</g>
<g>
	<g>
		<rect fill="#64C29C"  x="151.999" y="192" width="16" height="16"/>
	</g>
</g>
<g>
</g>
<g>
</g>
<g>
</g>
<g>
</g>
<g>
</g>
<g>
</g>
<g>
</g>
<g>
</g>
<g>
</g>
<g>
</g>
<g>
</g>
<g>
</g>
<g>
</g>
<g>
</g>
<g>
</g>
</svg>
